<svg id="acd5a433-09d6-4c10-9d5c-1fdfb202ee06" data-name="Capa 1" xmlns="http://www.w3.org/2000/svg" viewBox="0 0 92.75 30.94"><defs><style>.fa461696-52a5-4db7-a91e-ff20d5db985c{fill:#4956a2;}.e149fcc7-61c6-4b86-9f6c-727c3cf24b92{fill:#fff;}.e967c082-5654-4737-b70d-3464d2e97b85{fill:#fcfcfd;}.afc06a99-08c9-4722-b176-65c7a352d354{fill:#cd2e4c;}</style></defs><path class="fa461696-52a5-4db7-a91e-ff20d5db985c" d="M33.15,17.27c0,3.3,0,6.59,0,9.89a5.27,5.27,0,0,1-5.29,5.32H7.94a5.19,5.19,0,0,1-5.12-4.08,5.78,5.78,0,0,1-.14-1.31q0-9.84,0-19.68A5.22,5.22,0,0,1,6.74,2.15,4.89,4.89,0,0,1,8,2c6.66,0,13.32,0,20,0a5.2,5.2,0,0,1,5.22,5.22Zm-16.24.91c-.07.17-.23.24-.37.33-1.28,1-2.56,1.9-3.85,2.85a1.29,1.29,0,0,0,.52,2.31,1.23,1.23,0,0,0,1.29-.53l2-2.65c.33-.44.65-.88,1-1.31.19-.24.3-.23.45.05a2.14,2.14,0,0,1,.16.42c.1.45.21.89.29,1.35.21,1.27.4,2.54.62,3.82a3.56,3.56,0,0,0,1.81,2.57,4.69,4.69,0,0,0,.8.34c.24.08.31,0,.31-.23,0-.06,0-.11,0-.16a17.11,17.11,0,0,0-1.23-7.07,10.4,10.4,0,0,0-6.29-6.07,16.54,16.54,0,0,0-6.28-.79c-.23,0-.3.1-.27.32a3,3,0,0,0,1.2,2,4.63,4.63,0,0,0,1.77.75A57.42,57.42,0,0,1,16.57,18C16.69,18,16.84,18,16.91,18.18Zm12.22.61a5.46,5.46,0,0,0,1-.07c.33,0,.35,0,.3-.36a3.13,3.13,0,0,0-2.71-2.6c-1.31-.15-2.63-.27-3.94-.41A12.19,12.19,0,0,1,21.91,15a2,2,0,0,1-1.39-1.3,11.44,11.44,0,0,1-.43-1.52c-.31-1.48-.48-3-.72-4.46a4.18,4.18,0,0,0-.81-2,3.61,3.61,0,0,0-1.73-1.2c-.33-.12-.43,0-.47.3a2.17,2.17,0,0,0,0,.36c0,.47,0,1,.06,1.42A15.91,15.91,0,0,0,17.65,12a10.44,10.44,0,0,0,5.29,5.55A15.13,15.13,0,0,0,29.13,18.79ZM11.44,25.68a1.18,1.18,0,0,0,1.21-1.23,1.23,1.23,0,0,0-1.22-1.23,1.25,1.25,0,0,0-1.22,1.25A1.2,1.2,0,0,0,11.44,25.68Zm-2.19,2a1.21,1.21,0,0,0,1.24-1.21,1.24,1.24,0,0,0-1.22-1.24A1.21,1.21,0,0,0,8,26.48,1.19,1.19,0,0,0,9.25,27.71Z" transform="translate(-2.68 -2)"/><path class="e149fcc7-61c6-4b86-9f6c-727c3cf24b92" d="M75.18,9.14c.06-.1.13-.2.2-.3a3.12,3.12,0,0,1,3.25-1.32,1.79,1.79,0,0,1,1.51,1.27c.06.16.1.33.15.5.18-.11.24-.3.35-.45A3.22,3.22,0,0,1,84,7.54a1.78,1.78,0,0,1,1.44,1.29,4.07,4.07,0,0,1,.22,1.35c0,1.88,0,3.77,0,5.66,0,.42,0,.42-.4.43H83.43c-.4,0-.4,0-.41-.43,0-1.45,0-2.89,0-4.34a2.7,2.7,0,0,0-.1-.8A1,1,0,0,0,81.64,10a1.43,1.43,0,0,0-1,.91,3.81,3.81,0,0,0-.24,1.45v3.52c0,.39,0,.39-.39.4H78.11c-.37,0-.38,0-.38-.41,0-1.5,0-3,0-4.49a2,2,0,0,0-.13-.8,1,1,0,0,0-1.1-.61,1.41,1.41,0,0,0-1.13.92,3.61,3.61,0,0,0-.26,1.49c0,1.16,0,2.31,0,3.47,0,.42,0,.42-.4.43H72.84c-.4,0-.41,0-.41-.43V9.92c0-.64,0-1.29,0-1.94,0-.27.09-.35.35-.34.66,0,1.32,0,2,0,.24,0,.33.08.32.32,0,.39,0,.77,0,1.16Z" transform="translate(-2.68 -2)"/><path class="e149fcc7-61c6-4b86-9f6c-727c3cf24b92" d="M36.17,10.61v-5c0-.14,0-.27,0-.41A.17.17,0,0,1,36.36,5a23.41,23.41,0,0,1,5.73.34,4.17,4.17,0,0,1,.67.25,2.65,2.65,0,0,1,1.52,1.8,5.67,5.67,0,0,1,0,2.92,2.74,2.74,0,0,1-1.66,1.93,6.66,6.66,0,0,1-2.28.49c-.37,0-.75,0-1.12,0s-.41,0-.42.44a7.22,7.22,0,0,1,0,.81,2.62,2.62,0,0,1-2.23,2.26c-.34.05-.38,0-.38-.33ZM38.81,8.8V10c0,.45,0,.46.44.46s.64,0,1,0c1.23-.08,1.69-.61,1.62-1.84a1.32,1.32,0,0,0-1.21-1.34,8.51,8.51,0,0,0-1.51-.09c-.22,0-.3.08-.3.29C38.82,7.92,38.81,8.36,38.81,8.8Z" transform="translate(-2.68 -2)"/><path class="e149fcc7-61c6-4b86-9f6c-727c3cf24b92" d="M63.63,24.44a2.15,2.15,0,0,0-.21-1.35,1,1,0,0,0-.72-.51,4.16,4.16,0,0,0-1.72.06c-.53.08-1.06.21-1.59.33-.19,0-.33,0-.32-.22,0-.61,0-1.22,0-1.83,0-.23.1-.3.29-.34a15.85,15.85,0,0,1,4.56-.21,2.49,2.49,0,0,1,2.17,1.82,6.57,6.57,0,0,1,.3,2c0,1.51,0,3,0,4.53,0,.42,0,.42-.42.42H64c-.21,0-.32-.06-.3-.29s0-.44,0-.65c-.19-.07-.22.08-.28.16a3.27,3.27,0,0,1-4.11.39,2.86,2.86,0,0,1-1.06-2.86,2.64,2.64,0,0,1,2.63-2.38,5,5,0,0,1,1.16.06A2.47,2.47,0,0,1,63.63,24.44Zm-1.28,2.73a2.17,2.17,0,0,0,1-.22.69.69,0,0,0,.38-.72c0-.25,0-.53-.35-.61a3,3,0,0,0-2,.08.64.64,0,0,0-.41.65.71.71,0,0,0,.44.63A2.63,2.63,0,0,0,62.35,27.17Z" transform="translate(-2.68 -2)"/><path class="e149fcc7-61c6-4b86-9f6c-727c3cf24b92" d="M68.57,15.33a3.06,3.06,0,0,1-4.91-.27,3,3,0,0,1,0-3.23,2.34,2.34,0,0,1,1.46-1.05,4,4,0,0,1,2.31.05,2.28,2.28,0,0,1,1.09.72,1.36,1.36,0,0,0-1.14-1.84,8.93,8.93,0,0,0-1.27,0A2,2,0,0,1,64.1,8.28c-.11-.4-.08-.46.33-.54a16.09,16.09,0,0,1,4.27-.22,2.53,2.53,0,0,1,2.4,2,7.54,7.54,0,0,1,.26,2.11c0,1.41,0,2.82,0,4.23,0,.39,0,.39-.4.4H69c-.23,0-.34-.06-.33-.31a4,4,0,0,0,0-.6Zm-1.28-1a2,2,0,0,0,1-.2.77.77,0,0,0,.37-.82.53.53,0,0,0-.44-.55,3.42,3.42,0,0,0-1.85.06.69.69,0,0,0-.49.7.7.7,0,0,0,.49.65A2.11,2.11,0,0,0,67.29,14.33Z" transform="translate(-2.68 -2)"/><path class="e149fcc7-61c6-4b86-9f6c-727c3cf24b92" d="M53.3,16.27H50.93c-.18,0-.23-.1-.22-.26V15.3c-.19,0-.22.15-.29.23a3,3,0,0,1-5-1,2.78,2.78,0,0,1,2.69-3.85,4,4,0,0,1,1.5.21,2.46,2.46,0,0,1,1,.7A1.38,1.38,0,0,0,49.33,9.7a9.17,9.17,0,0,0-1.17.06,1.93,1.93,0,0,1-2-1.33c0-.12,0-.23-.07-.35s0-.27.23-.31A14.07,14.07,0,0,1,48,7.53a14.66,14.66,0,0,1,2.65,0A2.67,2.67,0,0,1,53.24,10a13.54,13.54,0,0,1,.13,2.29c0,1.22,0,2.44,0,3.67A.49.49,0,0,1,53.3,16.27Zm-3.89-3.6a2.18,2.18,0,0,0-1.13.21.69.69,0,0,0-.09,1.18,2.45,2.45,0,0,0,2.19,0,.82.82,0,0,0,.29-.91.63.63,0,0,0-.6-.47C49.85,12.68,49.63,12.68,49.41,12.67Z" transform="translate(-2.68 -2)"/><path class="e149fcc7-61c6-4b86-9f6c-727c3cf24b92" d="M91.94,11.62c0-.13,0-.17,0-.22-.08-1.39-.54-1.79-2-1.68a7.32,7.32,0,0,1-.81,0,1.92,1.92,0,0,1-1.83-1.62c0-.22,0-.33.25-.38a14.49,14.49,0,0,1,1.61-.22,12.3,12.3,0,0,1,3.15,0,2.38,2.38,0,0,1,1.88,1.55,4.75,4.75,0,0,1,.36,1.78c0,1.67,0,3.34,0,5,0,.26-.06.36-.34.35h-2c-.28,0-.36-.1-.34-.36s0-.4,0-.64a.66.66,0,0,0-.32.29,3,3,0,0,1-5-1.05,2.79,2.79,0,0,1,2.67-3.86,4.17,4.17,0,0,1,1.56.23A2.49,2.49,0,0,1,91.94,11.62Zm-1.23,1.05a2.56,2.56,0,0,0-1.09.18.7.7,0,0,0-.42.64.63.63,0,0,0,.37.62,2.31,2.31,0,0,0,2.05,0,.74.74,0,0,0,.35-.88c-.06-.31-.22-.46-.6-.52C91.15,12.68,90.93,12.68,90.71,12.67Z" transform="translate(-2.68 -2)"/><path class="e149fcc7-61c6-4b86-9f6c-727c3cf24b92" d="M44.1,17.82a2.55,2.55,0,0,1,1.27.22,3.4,3.4,0,0,1,2.08,2.3c.44,1.54.87,3.1,1.31,4.65,0,.16.1.32.16.51a.64.64,0,0,0,.23-.45c.48-1.57.94-3.15,1.45-4.72a3.5,3.5,0,0,1,2.87-2.5l.26,0h.2a.46.46,0,0,1,0,.4q-1.4,4.58-2.8,9.15A2.3,2.3,0,0,1,48.34,29a2,2,0,0,1-1.52-1.49c-.39-1.35-.76-2.71-1.14-4.06-.48-1.72-1-3.43-1.45-5.15C44.19,18.16,44.15,18,44.1,17.82Z" transform="translate(-2.68 -2)"/><path class="e149fcc7-61c6-4b86-9f6c-727c3cf24b92" d="M95.42,24.76a6,6,0,0,1-.33,2,3.66,3.66,0,0,1-2.65,2.38,4.89,4.89,0,0,1-2.76-.06,3.62,3.62,0,0,1-2.47-2.44,5.63,5.63,0,0,1,0-3.56,3.73,3.73,0,0,1,3.34-2.72,5.29,5.29,0,0,1,2,.12A3.88,3.88,0,0,1,95.36,24C95.39,24.24,95.41,24.52,95.42,24.76Zm-2.66,0a4.09,4.09,0,0,0-.07-.6A1.45,1.45,0,0,0,91.22,23a1.49,1.49,0,0,0-1.56,1.18,2.68,2.68,0,0,0,0,1.26,1.54,1.54,0,0,0,1.58,1.24,1.49,1.49,0,0,0,1.48-1.34A4.4,4.4,0,0,0,92.76,24.8Z" transform="translate(-2.68 -2)"/><path class="e149fcc7-61c6-4b86-9f6c-727c3cf24b92" d="M57.2,9.14c.08-.13.17-.25.25-.37a3.16,3.16,0,0,1,3.29-1.24,1.77,1.77,0,0,1,1.41,1.2,3.72,3.72,0,0,1,.26,1.39c0,1.92,0,3.84,0,5.76,0,.38,0,.38-.4.39H60.12c-.35,0-.36,0-.36-.37,0-1.45,0-2.89,0-4.34a3.26,3.26,0,0,0-.07-.76A1,1,0,0,0,58.29,10a1.43,1.43,0,0,0-.94.93,3.68,3.68,0,0,0-.22,1.35c0,1.14,0,2.28,0,3.42,0,.63.06.55-.58.56H55.06c-.68,0-.6.08-.6-.59,0-2.36,0-4.72,0-7.08,0-.24,0-.48,0-.72s.08-.24.25-.24q1.09,0,2.19,0c.17,0,.24.08.24.25,0,.41,0,.82,0,1.22Z" transform="translate(-2.68 -2)"/><path class="e149fcc7-61c6-4b86-9f6c-727c3cf24b92" d="M74.41,25.85a1.72,1.72,0,0,0,1.73,1.32,6.56,6.56,0,0,0,2.1-.35l.34-.11c.12.12.07.26.07.39,0,.49,0,1,0,1.48,0,.14,0,.3-.19.35a9.08,9.08,0,0,1-4.08.23,3.41,3.41,0,0,1-2.59-2.43,6.13,6.13,0,0,1,0-3.81,3.54,3.54,0,0,1,3.36-2.58,5.54,5.54,0,0,1,1.52.1,3,3,0,0,1,2.26,1.86,7,7,0,0,1,.45,3.2c0,.29-.12.36-.4.36H74.41Zm-.14-2a9.33,9.33,0,0,0,2.59-.06c-.22-.87-.6-1.21-1.33-1.2S74.43,23,74.27,23.83Z" transform="translate(-2.68 -2)"/><path class="e149fcc7-61c6-4b86-9f6c-727c3cf24b92" d="M65,30.08c.23-.07.39,0,.57.08a3.48,3.48,0,0,0,.85.11,1.35,1.35,0,0,0,1.42-1.08A4.09,4.09,0,0,0,68,27.93q0-3.43,0-6.88V20.7c0-.17,0-.26.22-.26h2.25c.12,0,.18.06.18.19s0,.1,0,.15c0,2.73,0,5.47,0,8.2a6.1,6.1,0,0,1-.34,1.8A3,3,0,0,1,67,32.94a7.55,7.55,0,0,1-1.76-.25c-.15,0-.3-.06-.29-.27Z" transform="translate(-2.68 -2)"/><path class="e149fcc7-61c6-4b86-9f6c-727c3cf24b92" d="M86.5,22.9l-.7-.12A2.25,2.25,0,0,0,83,25.06c-.08,1,0,2,0,3,0,.27,0,.54,0,.81s-.07.28-.27.27H80.57c-.21,0-.26-.1-.26-.28s0-.2,0-.3V21c0-.1,0-.2,0-.3s.09-.27.28-.27h2.09c.21,0,.31.07.3.29s0,.54,0,.82a.57.57,0,0,0,.07.41c.13-.06.18-.19.25-.29a3.31,3.31,0,0,1,3-1.38c.12,0,.24,0,.24.18Z" transform="translate(-2.68 -2)"/><path class="e149fcc7-61c6-4b86-9f6c-727c3cf24b92" d="M57.3,24.79c0,1.3,0,2.61,0,3.92,0,.38,0,.39-.39.39H55c-.35,0-.35,0-.36-.38V20.88c0-.41,0-.41.42-.42h1.89c.38,0,.38,0,.38.41C57.31,22.17,57.3,23.48,57.3,24.79Z" transform="translate(-2.68 -2)"/><path class="e149fcc7-61c6-4b86-9f6c-727c3cf24b92" d="M56,17.9a1.56,1.56,0,0,1,.92.22,1,1,0,0,1,0,1.79,1.88,1.88,0,0,1-1.89,0,1,1,0,0,1,0-1.73A1.6,1.6,0,0,1,56,17.9Z" transform="translate(-2.68 -2)"/><path class="e149fcc7-61c6-4b86-9f6c-727c3cf24b92" d="M69.21,17.9a1.63,1.63,0,0,1,1,.21,1,1,0,0,1,.53.92.94.94,0,0,1-.56.89,1.91,1.91,0,0,1-1.8,0,1,1,0,0,1-.56-.9,1,1,0,0,1,.54-.91A1.6,1.6,0,0,1,69.21,17.9Z" transform="translate(-2.68 -2)"/><path class="e149fcc7-61c6-4b86-9f6c-727c3cf24b92" d="M92.12,4.16,91,5.77c-.51.71-.51.71-1.4.7l-.28,0a1.44,1.44,0,0,1,.11-.59c.11-.48.25-1,.36-1.43a.32.32,0,0,1,.35-.28Z" transform="translate(-2.68 -2)"/><path class="e967c082-5654-4737-b70d-3464d2e97b85" d="M16.91,18.18c-.07-.14-.22-.15-.34-.19a57.42,57.42,0,0,0-5.76-1.52A4.63,4.63,0,0,1,9,15.72a3,3,0,0,1-1.2-2c0-.22,0-.31.27-.32a16.54,16.54,0,0,1,6.28.79,10.4,10.4,0,0,1,6.29,6.07,17.11,17.11,0,0,1,1.23,7.07c0,.05,0,.1,0,.16,0,.21-.07.31-.31.23a4.69,4.69,0,0,1-.8-.34A3.56,3.56,0,0,1,19,24.82c-.22-1.28-.41-2.55-.62-3.82-.08-.46-.19-.9-.29-1.35a2.14,2.14,0,0,0-.16-.42c-.15-.28-.26-.29-.45-.05-.33.43-.65.87-1,1.31l-2,2.65a1.23,1.23,0,0,1-1.29.53,1.29,1.29,0,0,1-.52-2.31c1.29-.95,2.57-1.89,3.85-2.85C16.68,18.42,16.84,18.35,16.91,18.18Z" transform="translate(-2.68 -2)"/><path class="afc06a99-08c9-4722-b176-65c7a352d354" d="M29.13,18.79a15.13,15.13,0,0,1-6.19-1.21A10.44,10.44,0,0,1,17.65,12,15.91,15.91,0,0,1,16.4,6.55c0-.47-.06-1-.06-1.42a2.17,2.17,0,0,1,0-.36c0-.34.14-.42.47-.3a3.61,3.61,0,0,1,1.73,1.2,4.18,4.18,0,0,1,.81,2c.24,1.48.41,3,.72,4.46a11.44,11.44,0,0,0,.43,1.52A2,2,0,0,0,21.91,15a12.19,12.19,0,0,0,1.89.39c1.31.14,2.63.26,3.94.41a3.13,3.13,0,0,1,2.71,2.6c.05.31,0,.34-.3.36A5.46,5.46,0,0,1,29.13,18.79Z" transform="translate(-2.68 -2)"/><path class="e967c082-5654-4737-b70d-3464d2e97b85" d="M11.44,25.68a1.2,1.2,0,0,1-1.23-1.21,1.25,1.25,0,0,1,1.22-1.25,1.23,1.23,0,0,1,1.22,1.23A1.18,1.18,0,0,1,11.44,25.68Z" transform="translate(-2.68 -2)"/><path class="e967c082-5654-4737-b70d-3464d2e97b85" d="M9.25,27.71A1.19,1.19,0,0,1,8,26.48a1.21,1.21,0,0,1,1.23-1.22,1.24,1.24,0,0,1,1.22,1.24A1.21,1.21,0,0,1,9.25,27.71Z" transform="translate(-2.68 -2)"/></svg>