<svg xmlns="http://www.w3.org/2000/svg" viewBox="0 0 30.43 30.42"><defs><style>.a08502d9-067a-4768-99ff-e62509aa64f7{fill:#4956a2;}.a6ff42a1-0b7e-416d-b10b-e3be0db5b00e{fill:#fcfcfd;}.f4ba910f-635f-4c36-94b6-1fa9dfa2e779{fill:#cd2e4c;}</style></defs><g id="a376a90d-4d62-41b7-8920-09cce2d25de4" data-name="Modo de aislamiento"><path class="a08502d9-067a-4768-99ff-e62509aa64f7" d="M33,17.24c0,3.29,0,6.59,0,9.88a5.24,5.24,0,0,1-5.28,5.3H7.83a5.17,5.17,0,0,1-5.11-4.08A5.27,5.27,0,0,1,2.57,27q0-9.83,0-19.64A5.2,5.2,0,0,1,6.63,2.15,4.81,4.81,0,0,1,7.83,2c6.65,0,13.3,0,20,0A5.19,5.19,0,0,1,33,7.22C33,10.56,33,13.9,33,17.24Zm-16.21.91c-.07.17-.23.24-.36.34l-3.85,2.84a1.19,1.19,0,0,0-.5,1.29,1.22,1.22,0,0,0,1,1,1.23,1.23,0,0,0,1.29-.53c.65-.88,1.32-1.76,2-2.64.32-.44.64-.88,1-1.31.19-.24.3-.23.45.05a1.62,1.62,0,0,1,.15.42c.11.45.22.89.3,1.34.21,1.27.4,2.55.62,3.82a3.52,3.52,0,0,0,1.81,2.57,4.55,4.55,0,0,0,.79.33c.24.08.31,0,.31-.23,0-.05,0-.1,0-.15a17.19,17.19,0,0,0-1.22-7.06,10.39,10.39,0,0,0-6.29-6.06A16.44,16.44,0,0,0,8,13.39c-.22,0-.29.1-.27.32a3,3,0,0,0,1.21,2,4.5,4.5,0,0,0,1.76.74c1.93.46,3.87.87,5.75,1.52C16.56,18,16.71,18,16.78,18.15Zm12.2.62a6.59,6.59,0,0,0,1-.08c.33,0,.35-.05.29-.36a3.09,3.09,0,0,0-2.7-2.59c-1.31-.16-2.62-.27-3.93-.42a11.1,11.1,0,0,1-1.89-.38,2,2,0,0,1-1.38-1.3A11.48,11.48,0,0,1,20,12.12c-.3-1.47-.47-3-.71-4.45a4.37,4.37,0,0,0-.81-2,3.75,3.75,0,0,0-1.73-1.2c-.32-.11-.42,0-.47.31a2,2,0,0,0,0,.35c0,.48,0,1,.05,1.42A16.27,16.27,0,0,0,17.52,12a10.4,10.4,0,0,0,5.28,5.54A15.25,15.25,0,0,0,29,18.77ZM11.32,25.64a1.18,1.18,0,0,0,1.21-1.22,1.21,1.21,0,0,0-1.22-1.23,1.25,1.25,0,0,0-1.22,1.24A1.2,1.2,0,0,0,11.32,25.64Zm-2.19,2a1.21,1.21,0,0,0,1.25-1.2,1.25,1.25,0,0,0-1.22-1.24,1.21,1.21,0,0,0-1.23,1.22A1.17,1.17,0,0,0,9.13,27.66Z" transform="translate(-2.57 -2)"/><path class="a6ff42a1-0b7e-416d-b10b-e3be0db5b00e" d="M16.78,18.15c-.07-.14-.22-.15-.34-.19-1.88-.65-3.82-1.06-5.75-1.52a4.5,4.5,0,0,1-1.76-.74,3,3,0,0,1-1.21-2c0-.22,0-.31.27-.32a16.44,16.44,0,0,1,6.27.79,10.39,10.39,0,0,1,6.29,6.06,17.19,17.19,0,0,1,1.22,7.06c0,.05,0,.1,0,.15,0,.22-.07.31-.31.23a4.55,4.55,0,0,1-.79-.33,3.52,3.52,0,0,1-1.81-2.57c-.22-1.27-.41-2.55-.62-3.82-.08-.45-.19-.89-.3-1.34a1.62,1.62,0,0,0-.15-.42c-.15-.28-.26-.29-.45-.05-.33.43-.65.87-1,1.31-.66.88-1.33,1.76-2,2.64a1.23,1.23,0,0,1-1.29.53,1.22,1.22,0,0,1-1-1,1.19,1.19,0,0,1,.5-1.29l3.85-2.84C16.55,18.39,16.71,18.32,16.78,18.15Z" transform="translate(-2.57 -2)"/><path class="f4ba910f-635f-4c36-94b6-1fa9dfa2e779" d="M29,18.77a15.25,15.25,0,0,1-6.18-1.22A10.4,10.4,0,0,1,17.52,12a16.27,16.27,0,0,1-1.25-5.47c0-.47-.06-.94-.05-1.42a2,2,0,0,1,0-.35c.05-.35.15-.42.47-.31a3.75,3.75,0,0,1,1.73,1.2,4.37,4.37,0,0,1,.81,2c.24,1.48.41,3,.71,4.45a11.48,11.48,0,0,0,.44,1.52,2,2,0,0,0,1.38,1.3,11.1,11.1,0,0,0,1.89.38c1.31.15,2.62.26,3.93.42a3.09,3.09,0,0,1,2.7,2.59c.06.31,0,.35-.29.36A6.59,6.59,0,0,1,29,18.77Z" transform="translate(-2.57 -2)"/><path class="a6ff42a1-0b7e-416d-b10b-e3be0db5b00e" d="M11.32,25.64a1.2,1.2,0,0,1-1.23-1.21,1.25,1.25,0,0,1,1.22-1.24,1.21,1.21,0,0,1,1.22,1.23A1.18,1.18,0,0,1,11.32,25.64Z" transform="translate(-2.57 -2)"/><path class="a6ff42a1-0b7e-416d-b10b-e3be0db5b00e" d="M9.13,27.66a1.17,1.17,0,0,1-1.2-1.22,1.21,1.21,0,0,1,1.23-1.22,1.25,1.25,0,0,1,1.22,1.24A1.21,1.21,0,0,1,9.13,27.66Z" transform="translate(-2.57 -2)"/></g></svg>